# AST/ASF file generated using VICON BodyLanguage
# -----------------------------------------------
:version 1.10
:name VICON
:units
  mass 1.0
  length 0.45
  angle deg
:documentation
   .ast/.asf automatically generated from VICON data using
   VICON BodyBuilder and BodyLanguage model FoxedUp or BRILLIANT.MOD
:root
   order TX TY TZ RX RY RZ
   axis XYZ
   position 0 0 0  
   orientation 0 0 0 
:bonedata
  begin
     id 1 
     name lhipjoint
     direction 0.560651 -0.75055 0.34978 
     length 2.44936 
     axis 0 0 0  XYZ
  end
  begin
     id 2 
     name lfemur
     direction 0.34202 -0.939693 0  
     length 7.42139  
     axis 0 0 20  XYZ
    dof rx ry rz
    limits (-160.0 20.0)
           (-70.0 70.0)
           (-60.0 70.0)
  end
  begin
     id 3 
     name ltibia
     direction 0.34202 -0.939693 0   
     length 7.75674   
     axis 0 0 20   XYZ
    dof rx
    limits (-10.0 170.0)
  end
  begin
     id 4 
     name lfoot
     direction 0.0925879 -0.254383 0.962661   
     length 2.38688   
     axis -90 7.62852e-016 20   XYZ
    dof rx rz
    limits (-45.0 90.0)
           (-70.0 20.0)
  end
  begin
     id 5 
     name ltoes
     direction 1.53567e-011 -4.21973e-011 1   
     length 1.19228   
     axis -90 7.62852e-016 20   XYZ
    dof rx
    limits (-90.0 20.0)
  end
  begin
     id 6 
     name rhipjoint
     direction -0.540087 -0.762838 0.355506   
     length 2.4099  
     axis 0 0 0  XYZ 
  end
  begin
     id 7 
     name rfemur
     direction -0.34202 -0.939693 0   
     length 7.70794   
     axis 0 0 -20   XYZ
    dof rx ry rz
    limits (-160.0 20.0)
           (-70.0 70.0)
           (-70.0 60.0)
  end
  begin
     id 8 
     name rtibia
     direction -0.34202 -0.939693 0   
     length 7.66106   
     axis 0 0 -20   XYZ
    dof rx
    limits (-10.0 170.0)
 end
 begin
     id 9 
     name rfoot
     direction -0.0830975 -0.228308 0.970036   
     length 2.4989  
     axis -90 -7.62852e-016 -20   XYZ
    dof rx rz
    limits (-45.0 90.0)
           (-20.0 70.0)
  end
  begin
     id 10 
     name rtoes
     direction -1.53517e-011 -4.21842e-011 1   
     length 1.2498   
     axis -90 -7.62852e-016 -20   XYZ
    dof rx
    limits (-90.0 20.0)
  end
  begin
     id 11 
     name lowerback
     direction 0.0266356 0.99402 -0.105896   
     length 2.1545   
     axis 0 0 0   XYZ
    dof rx ry rz
    limits (-20.0 45.0)
           (-30.0 30.0)
           (-30.0 30.0)
  end
  begin
     id 12 
     name upperback
     direction 0.0130547 0.999192 0.0380027   
     length 2.1434   
     axis 0 0 0   XYZ
    dof rx ry rz
    limits (-20.0 45.0)
           (-30.0 30.0)
           (-30.0 30.0)
  end
  begin
     id 13 
     name thorax
     direction 0.000590299 0.996288 0.0860764   
     length 2.19049   
     axis 0 0 0   XYZ
    dof rx ry rz
    limits (-20.0 45.0)
           (-30.0 30.0)
           (-30.0 30.0)
  end
  begin
     id 14 
     name lowerneck
     direction -0.0432125 0.978219 0.203028   
     length 1.62441   
     axis 0 0 0   XYZ
    dof rx ry rz
    limits (-20.0 45.0)
           (-30.0 30.0)
           (-30.0 30.0)
  end
  begin
     id 15 
     name upperneck
     direction -0.0192309 0.991699 -0.127138   
     length 1.66666   
     axis 0 0 0   XYZ
    dof rx ry rz
    limits (-20.0 45.0)
           (-30.0 30.0)
           (-30.0 30.0)
  end
  begin
     id 16
     name head
     direction -0.00434499 0.997882 -0.0649107  
     length 1.67142  
     axis 0 0 0   XYZ
    dof rx ry rz
    limits (-20.0 45.0)
           (-30.0 30.0)
           (-30.0 30.0)
  end
  begin
     id 17 
     name lclavicle
     direction 0.970351 0.240904 -0.0196058  
     length 4.04862  
     axis 0 0 0   XYZ
    dof ry rz
    limits (-20.0 10.0)
           (0.0 20.0)
  end
  begin
     id 18 
     name lhumerus
     direction 1 -4.4896e-011 -1.40911e-018   
     length 5.58345   
     axis 180 -30 -90   XYZ
    dof rx ry rz
    limits (-60.0 90.0)
           (-90.0 90.0)
           (-90.0 90.0)
  end
  begin
     id 19
     name lradius
     direction 1 -4.48968e-011 5.88912e-028   
     length 3.71087   
     axis 180 -30 -90   XYZ
    dof rx
    limits (-10.0 170.0)
  end
  begin
     id 20
     name lwrist
     direction 1 -4.48955e-011 -8.83775e-028   
     length 1.85544   
     axis 5.52448e-016 90 90   XYZ
    dof ry
    limits (-180.0 0.0)
 end
  begin
     id 21 
     name lhand
     direction 1 -4.49035e-011 -1.76755e-027   
     length 0.562322   
     axis 1.12785e-015 90 90   XYZ
    dof rx rz
    limits (-90.0 90.0)
           (-45.0 45.0)
  end
  begin
     id 22 
     name lfingers
     direction 1 -4.48824e-011 -3.5351e-027   
     length 0.453359   
     axis 2.2557e-015 90 90   XYZ
    dof rx
    limits (0.0 90.0)
  end
  begin
     id 23
     name lthumb
     direction 0.707107 -6.34888e-011 0.707107   
     length 0.650935   
     axis -90 45 2.85299e-015   XYZ
    dof rx rz
    limits (-45.0 45.0)
           (-45.0 45.0)
  end
  begin
     id 24 
     name rclavicle
     direction -0.96165 0.268562 -0.0557131   
     length 4.05446  
     axis 0 0 0   XYZ 
    dof ry rz
    limits (-10.0 20.0)
           (-20.0 0.0)
  end
  begin
     id 25 
     name rhumerus
     direction -1 -4.48957e-011 -3.36329e-027  
     length 5.20357   
     axis 180 30 90   XYZ
    dof rx ry rz
    limits (-90.0 60.0)
           (-90.0 90.0)
           (-90.0 90.0)
  end
  begin
     id 26 
     name rradius
     direction -1 -4.48974e-011 4.51441e-027   
     length 3.64937   
     axis 180 30 90   XYZ
    dof rx
    limits (-10.0 170.0)
  end
  begin
     id 27 
     name rwrist
     direction -1 -4.4896e-011 -8.83775e-028   
     length 1.82468   
     axis 5.52448e-016 -90 -90   XYZ
    dof ry
    limits (-180.0 0.0)
  end
  begin
     id 28
     name rhand
     direction -1 -4.48996e-011 -1.76755e-027   
     length 0.617996   
     axis 1.12785e-015 -90 -90   XYZ
    dof rx rz
    limits (-90.0 90.0)
           (-45.0 45.0)
  end
  begin
     id 29
     name rfingers
     direction -1 -4.48957e-011 -3.5351e-027   
     length 0.498244   
     axis 2.2557e-015 -90 -90   XYZ
    dof rx
    limits (0.0 90.0)
  end
  begin
     id 30
     name rthumb
     direction -0.707107 -6.34931e-011 0.707107   
     length 0.715382   
     axis -90 -45 -2.85299e-015   XYZ
    dof rx rz
    limits (-45.0 45.0)
           (-45.0 45.0)
  end
:hierarchy
  begin
    root lhipjoint rhipjoint lowerback
    lhipjoint lfemur
    lfemur ltibia
    ltibia lfoot
    lfoot ltoes
    rhipjoint rfemur
    rfemur rtibia
    rtibia rfoot
    rfoot rtoes
    lowerback upperback
    upperback thorax
    thorax lowerneck lclavicle rclavicle
    lowerneck upperneck
    upperneck head
    lclavicle lhumerus
    lhumerus lradius
    lradius lwrist
    lwrist lhand lthumb
    lhand lfingers
    rclavicle rhumerus
    rhumerus rradius
    rradius rwrist
    rwrist rhand rthumb
    rhand rfingers
  end

#!OML:ASF H:\ManfredETheater\Project 1\Capture day 2\Session 1\Male1.ASF
:FULLY-SPECIFIED
:DEGREES
111
root -4.24608 5.14445 -4.84999 15.3966 17.0445 -210.06
lowerback 37.9255 -2.76632 4.88609
upperback 15.5711 0.074097 -0.814839
thorax -1.40078 1.68051 -3.43903
lowerneck -10.3561 -6.7139 -9.46496
upperneck 14.1729 -7.02315 -3.87491
head 6.24717 -4.20116 -0.319432
rclavicle 0 -1.43125e-014
rhumerus -6.74717 4.70239 -51.1218
rradius 121.662
rwrist 13.1711
rhand -43.9073 -23.2003
rfingers 7.12502
rthumb -16.7319 -52.4992
lclavicle 0 -1.43125e-014
lhumerus 70.0844 -40.2393 55.0088
lradius 91.8748
lwrist -8.407
lhand -36.6859 -2.62823
lfingers 7.12502
lthumb -9.77162 27.1251
rfemur -96.1078 -31.9666 54.3903
rtibia 109.298
rfoot 16.6627 2.63005
rtoes 12.8309
lfemur -56.5575 31.093 11.7079
ltibia 96.9792
lfoot 9.05325 -1.46987
ltoes -6.13944
112
root -4.45473 4.78908 -5.17479 18.0501 19.6151 -208.026
lowerback 38.333 -2.84263 5.64576
upperback 15.3028 0.490969 0.209248
thorax -1.77816 1.91193 -2.89756
lowerneck -8.59233 -6.90245 -10.0113
upperneck 13.5487 -7.60446 -2.69539
head 5.8291 -4.3861 0.160879
rclavicle -3.18055e-014 -1.35174e-014
rhumerus -8.00717 4.79581 -49.8496
rradius 121.543
rwrist 11.9007
rhand -44.2256 -23.7042
rfingers 7.12502
rthumb -17.0384 -52.977
lclavicle -3.18055e-014 -1.35174e-014
lhumerus 67.2324 -41.7048 56.9409
lradius 92.9388
lwrist -7.65667
lhand -36.495 -2.44445
lfingers 7.12502
lthumb -9.5874 27.3174
rfemur -97.1875 -32.4287 54.9176
rtibia 109.733
rfoot 15.7481 2.64622
rtoes 13.9689
lfemur -58.7332 31.6593 9.96954
ltibia 98.42
lfoot 9.52014 -1.22001
ltoes -5.76833
113
root -4.6622 4.43701 -5.49232 20.8987 22.1961 -205.92
lowerback 38.8183 -3.12577 6.57197
upperback 14.8501 0.722694 1.12071
thorax -2.39479 2.03613 -2.50519
lowerneck -6.84328 -6.94393 -10.3127
upperneck 12.9713 -7.95951 -1.84006
head 5.40927 -4.48262 0.520964
rclavicle 0 -1.31198e-014
rhumerus -9.23283 5.20924 -49.2978
rradius 121.258
rwrist 10.0157
rhand -44.3591 -24.1446
rfingers 7.12502
rthumb -17.1669 -53.4063
lclavicle 0 -1.31198e-014
lhumerus 63.4284 -42.9285 59.2073
lradius 93.9485
lwrist -7.76579
lhand -36.2872 -2.12006
lfingers 7.12502
lthumb -9.3869 27.6509
rfemur -98.2027 -32.792 55.5529
rtibia 109.973
rfoot 15.0171 2.55499
rtoes 15.7114
lfemur -61.0966 32.2839 8.2123
ltibia 99.9623
lfoot 10.222 -1.0056
ltoes -5.40051
114
root -4.86564 4.08901 -5.80046 23.9946 24.7207 -203.608
lowerback 39.3475 -3.54471 7.493
upperback 14.303 0.808567 1.9143
thorax -3.13633 2.07741 -2.18529
lowerneck -5.33551 -6.89051 -10.3344
upperneck 12.4496 -8.13651 -1.29154
head 5.02164 -4.50864 0.747721
rclavicle 5.24792e-014 4.31363e-014
rhumerus -10.2155 5.76575 -49.4274
rradius 120.759
rwrist 7.60525
rhand -44.6006 -24.6764
rfingers 7.12502
rthumb -17.3993 -53.9176
lclavicle 5.24792e-014 4.31363e-014
lhumerus 58.8723 -43.7916 61.7697
lradius 94.857
lwrist -8.50989
lhand -35.9614 -1.60148
lfingers 7.12502
lthumb -9.07256 28.1834
rfemur -99.1392 -33.0401 56.1653
rtibia 110.038
rfoot 14.4569 2.33891
rtoes 18.1128
lfemur -63.6 32.9661 6.33132
ltibia 101.593
lfoot 11.1185 -0.920365
ltoes -5.10556
115
root -5.06351 3.74758 -6.09776 27.3392 27.1015 -201.095
lowerback 39.9534 -4.03526 8.37316
upperback 13.7002 0.826174 2.59434
thorax -3.9646 2.0784 -1.937
lowerneck -4.23418 -6.80225 -10.1563
upperneck 12.0285 -8.20476 -0.907803
head 4.71574 -4.49143 0.883779
rclavicle 2.70347e-014 8.05078e-014
rhumerus -10.8759 6.28974 -50.1337
rradius 120.035
rwrist 4.9362
rhand -45.1438 -25.2873
rfingers 7.12502
rthumb -17.922 -54.4815
lclavicle 2.70347e-014 8.05078e-014
lhumerus 53.7671 -44.2656 64.5602
lradius 95.6718
lwrist -9.49996
lhand -35.529 -0.80721
lfingers 7.12502
lthumb -8.65527 28.9954
rfemur -99.9163 -33.1196 56.7013
rtibia 109.937
rfoot 14.006 1.96952
rtoes 21.1869
lfemur -66.1684 33.7898 4.36315
ltibia 103.315
lfoot 12.0967 -1.09075
ltoes -4.8044
116
root -5.25404 3.41507 -6.38202 30.9845 29.2519 -198.265
lowerback 40.6236 -4.52594 9.11994
upperback 13.0819 0.827831 3.16146
thorax -4.8316 2.06721 -1.72943
lowerneck -3.59615 -6.71764 -9.75436
upperneck 11.6926 -8.21712 -0.686328
head 4.49536 -4.45402 0.920621
rclavicle 2.38542e-014 -2.89232e-014
rhumerus -11.1976 6.62301 -51.285
rradius 119.073
rwrist 2.39682
rhand -46.0057 -25.7615
rfingers 7.12502
rthumb -18.7512 -54.8778
lclavicle 2.38542e-014 -2.89232e-014
lhumerus 48.334 -44.3562 67.4991
lradius 96.4113
lwrist -10.3012
lhand -35.0662 -0.0405705
lfingers 7.12502
lthumb -8.20869 29.78
rfemur -100.524 -33.0433 57.0331
rtibia 109.72
rfoot 13.5578 1.48182
rtoes 24.6784
lfemur -68.7764 34.7629 2.18956
ltibia 105.126
lfoot 13.0203 -1.60898
ltoes -4.86678
117
root -5.43627 3.09636 -6.65066 34.9522 31.1231 -195.085
lowerback 41.2793 -4.9836 9.62584
upperback 12.5466 0.805669 3.69299
thorax -5.61191 2.05374 -1.42305
lowerneck -3.66209 -6.63573 -9.24662
upperneck 11.5327 -8.1422 -0.642621
head 4.43122 -4.38899 0.862942
rclavicle -2.3059e-014 3.48494e-014
rhumerus -10.9422 6.72424 -52.6239
rradius 117.826
rwrist 0.419193
rhand -46.9702 -25.9132
rfingers 7.12502
rthumb -19.6786 -54.9371
lclavicle -2.3059e-014 3.48494e-014
lhumerus 42.8619 -43.8759 70.4892
lradius 97.0993
lwrist -10.5222
lhand -34.6624 0.639259
lfingers 7.12502
lthumb -7.81891 30.4747
rfemur -100.949 -32.8517 57.1239
rtibia 109.445
rfoot 12.9746 0.934393
rtoes 28.2204
lfemur -71.3925 35.9021 -0.208535
ltibia 107.028
lfoot 13.7337 -2.54958
ltoes -5.32864
118
root -5.60364 2.80339 -6.89784 39.8371 32.1308 -190.94
lowerback 41.4389 -5.05857 9.15262
upperback 12.1437 0.748762 4.12534
thorax -6.14306 2.00898 -0.723663
lowerneck -4.35516 -6.55837 -8.64265
upperneck 11.5766 -7.99211 -0.866898
head 4.51704 -4.30629 0.686981
rclavicle 6.67916e-014 4.88762e-014
rhumerus -10.1231 6.56799 -53.9779
rradius 116.297
rwrist -0.744859
rhand -47.7494 -25.5288
rfingers 7.12502
rthumb -20.4276 -54.4743
lclavicle 6.67916e-014 4.88762e-014
lhumerus 37.4825 -42.8852 73.4808
lradius 97.773
lwrist -10.2237
lhand -34.4488 1.4138
lfingers 7.12502
lthumb -7.61277 31.2568
rfemur -101.679 -32.3032 56.3553
rtibia 109.264
rfoot 12.3202 0.327037
rtoes 31.2226
lfemur -74.2643 37.1769 -3.80325
ltibia 109.016
lfoot 14.1086 -3.67572
ltoes -6.16851
119
root -5.75393 2.54811 -7.12253 46.0103 31.67 -185.591
lowerback 40.701 -4.53859 7.19876
upperback 11.8792 0.598564 4.38028
thorax -6.30438 1.88271 0.561466
lowerneck -5.6487 -6.47237 -7.96914
upperneck 11.9378 -7.75378 -1.35771
head 4.78696 -4.20224 0.397621
rclavicle -3.97569e-016 2.48108e-014
rhumerus -8.79426 6.20076 -55.2794
rradius 114.514
rwrist -0.966809
rhand -48.1307 -24.5071
rfingers 7.12502
rthumb -20.794 -53.4129
lclavicle -3.97569e-016 2.48108e-014
lhumerus 32.2594 -41.3764 76.4639
lradius 98.4609
lwrist -9.46458
lhand -34.3083 1.9226
lfingers 7.12502
lthumb -7.4772 31.7704
rfemur -103.161 -31.2787 54.2927
rtibia 109.275
rfoot 11.6991 -0.321263
rtoes 33.5948
lfemur -77.6334 38.4132 -9.38028
ltibia 111.056
lfoot 14.0654 -4.7239
ltoes -7.35114
120
root -5.88996 2.3394 -7.33253 52.7038 30.2272 -180.007
lowerback 39.1804 -3.80767 4.63002
upperback 11.7096 0.352727 4.58575
thorax -6.09338 1.68712 2.16524
lowerneck -7.32173 -6.38078 -7.27508
upperneck 12.5881 -7.44545 -2.13306
head 5.20227 -4.09042 0.00387228
rclavicle -7.7526e-015 1.09083e-014
rhumerus -7.0604 5.69466 -56.4432
rradius 112.542
rwrist -0.469347
rhand -48.0059 -22.996
rfingers 7.12502
rthumb -20.674 -51.9149
lclavicle -7.7526e-015 1.09083e-014
lhumerus 27.2622 -39.339 79.3783
lradius 99.12
lwrist -8.55715
lhand -34.2523 2.35515
lfingers 7.12502
lthumb -7.42315 32.2049
rfemur -105.102 -30.1453 51.7604
rtibia 109.408
rfoot 10.9629 -0.892274
rtoes 35.4568
lfemur -81.361 39.5577 -15.8713
ltibia 113.153
lfoot 13.7217 -5.84923
ltoes -8.83279
121
root -6.01378 2.18413 -7.5359 59.6344 27.9996 -174.655
lowerback 36.846 -3.0312 1.81384
upperback 11.5535 0.0332068 4.7288
thorax -5.51922 1.41363 3.89137
lowerneck -9.11682 -6.29754 -6.70671
upperneck 13.3553 -7.13384 -2.84907
head 5.69022 -3.98705 -0.359574
rclavicle 1.55052e-014 -5.397e-014
rhumerus -5.12539 5.07714 -57.5078
rradius 110.468
rwrist 0.446396
rhand -47.4046 -21.1897
rfingers 7.12502
rthumb -20.0962 -50.1704
lclavicle 1.55052e-014 -5.397e-014
lhumerus 22.5514 -36.845 82.0948
lradius 99.7115
lwrist -7.85164
lhand -34.2013 2.94527
lfingers 7.12502
lthumb -7.37383 32.7968
rfemur -107.533 -28.9724 49.1446
rtibia 109.619
rfoot 10.1918 -1.37362
rtoes 36.6896
lfemur -85.4923 40.5464 -22.8989
ltibia 115.304
lfoot 13.2351 -7.0012
ltoes -10.4342
122
root -6.1295 2.08086 -7.73719 66.3077 25.6217 -170.02
lowerback 33.8558 -2.44992 -0.598202
upperback 11.5015 -0.314325 4.87088
thorax -4.63117 1.09947 5.42272
lowerneck -10.7509 -6.24849 -6.30326
upperneck 14.0085 -6.90785 -3.28964
head 6.13983 -3.91488 -0.611919
rclavicle 1.43125e-014 1.59028e-015
rhumerus -3.14581 4.36114 -58.5462
rradius 108.375
rwrist 1.39217
rhand -46.3969 -19.196
rfingers 7.12502
rthumb -19.1274 -48.2754
lclavicle 1.43125e-014 1.59028e-015
lhumerus 18.1716 -33.988 84.4422
lradius 100.196
lwrist -7.54748
lhand -34.0298 3.71345
lfingers 7.12502
lthumb -7.20833 33.5707
rfemur -110.018 -27.9186 47.0577
rtibia 109.822
rfoot 9.37059 -1.70828
rtoes 37.2226
lfemur -89.6815 41.5538 -29.4222
ltibia 117.484
lfoot 12.8385 -8.23904
ltoes -11.568
123
root -6.23942 2.02276 -7.93573 72.2901 23.9047 -166.168
lowerback 30.6752 -2.23953 -1.97489
upperback 11.597 -0.624042 4.91875
thorax -3.55442 0.829983 6.76765
lowerneck -12.0988 -6.24657 -6.0875
upperneck 14.5975 -6.79543 -3.40148
head 6.54479 -3.87891 -0.731108
rclavicle -7.95139e-015 1.43125e-014
rhumerus -1.26797 3.59363 -59.5309
rradius 106.31
rwrist 2.04167
rhand -45.1916 -17.3688
rfingers 7.12502
rthumb -17.968 -46.5588
lclavicle -7.95139e-015 1.43125e-014
lhumerus 14.0647 -30.8582 86.3812
lradius 100.577
lwrist -7.68631
lhand -33.6397 4.71094
lfingers 7.12502
lthumb -6.83172 34.5807
rfemur -111.898 -27.202 46.0385
rtibia 109.972
rfoot 8.46246 -1.88969
rtoes 36.973
lfemur -93.4466 42.9574 -34.2849
ltibia 119.704
lfoot 12.5819 -9.92255
ltoes -12.4908
124
root -6.34117 2.00127 -8.13124 77.3817 23.091 -162.702
lowerback 28.3138 -2.37204 -2.23938
upperback 11.4453 -0.929402 5.36988
thorax -2.58345 0.594948 7.46551
lowerneck -12.9289 -6.28449 -6.02977
upperneck 14.9237 -6.82849 -3.12153
head 6.79946 -3.87926 -0.691087
rclavicle -3.18055e-014 2.18663e-014
rhumerus 0.396449 2.82193 -60.4322
rradius 104.3
rwrist 2.19074
rhand -43.9059 -15.8477
rfingers 7.12502
rthumb -16.7306 -45.1468
lclavicle -3.18055e-014 2.18663e-014
lhumerus 10.2322 -27.5406 87.857
lradius 100.792
lwrist -8.11955
lhand -33.123 5.81229
lfingers 7.12502
lthumb -6.33296 35.6976
rfemur -112.774 -27.0195 46.0508
rtibia 110.078
rfoot 7.60833 -1.93341
rtoes 35.891
lfemur -96.2453 45.027 -36.9464
ltibia 121.86
lfoot 12.6414 -12.0159
ltoes -12.8663
